<svg xmlns="http://www.w3.org/2000/svg" width="600" height="600" viewBox="0 0 600 600" role="img" aria-label="Collectible cards">
<title>Collectible cards</title><desc>Original abstract COSMORA editorial illustration; not a photograph or an official event logo.</desc>
<defs><linearGradient id="background" x2="1" y2="1"><stop stop-color="#101126"/><stop offset=".55" stop-color="#281344"/><stop offset="1" stop-color="#4e174b"/></linearGradient><radialGradient id="glow"><stop stop-color="#e74bad" stop-opacity=".7"/><stop offset="1" stop-color="#e74bad" stop-opacity="0"/></radialGradient><linearGradient id="line"><stop stop-color="#dba5ff"/><stop offset="1" stop-color="#ff73bd"/></linearGradient><filter id="shadow" x="-50%" y="-50%" width="200%" height="200%"><feDropShadow dx="0" dy="10" stdDeviation="12" flood-color="#04010c" flood-opacity=".6"/></filter></defs><rect width="100%" height="100%" fill="url(#background)"/><ellipse cx="402" cy="180" rx="341.99999999999994" ry="390" fill="url(#glow)"/><path d="M0 528L600 138M0 612L600 222" stroke="#f6b2f1" stroke-opacity=".08" stroke-width="1.5"/><g fill="#f3d9ff"><circle cx="84.00000000000001" cy="120" r="2.5"/><circle cx="498" cy="102.00000000000001" r="3"/><circle cx="546" cy="456" r="2"/><circle cx="138" cy="474" r="2"/></g><circle cx="300" cy="276" r="188" fill="#170f2e" fill-opacity=".32" stroke="#efc7ff" stroke-opacity=".13"/><ellipse cx="300" cy="445" rx="139" ry="23" fill="#050315" fill-opacity=".45"/><g transform="translate(128 100) scale(1.72)" fill="none" stroke="#f7eaff" stroke-width="5.5" stroke-linecap="round" stroke-linejoin="round" filter="url(#shadow)"><rect x="63" y="32" width="88" height="132" rx="13" transform="rotate(12 107 98)"/><rect x="45" y="38" width="88" height="132" rx="13" transform="rotate(-10 89 104)" fill="#311450"/><path d="M88 70L96 89L116 93L100 107L101 128L83 118L65 126L69 105L55 90L77 88Z"/><path d="M56 148L80 152M112 53L123 55"/></g><path d="M480 78V108M465 93H495" stroke="#facaff" stroke-width="3" stroke-linecap="round"/>
</svg>
