<svg xmlns="http://www.w3.org/2000/svg" width="1200" height="800" viewBox="0 0 1200 800" role="img" aria-label="COSMORA — a universe of shared interests">
<title>COSMORA — a universe of shared interests</title><desc>Original abstract COSMORA editorial illustration; not a photograph or an official event logo.</desc>
<defs><linearGradient id="background" x2="1" y2="1"><stop stop-color="#101126"/><stop offset=".55" stop-color="#281344"/><stop offset="1" stop-color="#4e174b"/></linearGradient><radialGradient id="glow"><stop stop-color="#bd4cff" stop-opacity=".7"/><stop offset="1" stop-color="#bd4cff" stop-opacity="0"/></radialGradient><linearGradient id="line"><stop stop-color="#dba5ff"/><stop offset="1" stop-color="#ff73bd"/></linearGradient><filter id="shadow" x="-50%" y="-50%" width="200%" height="200%"><feDropShadow dx="0" dy="10" stdDeviation="12" flood-color="#04010c" flood-opacity=".6"/></filter></defs><rect width="100%" height="100%" fill="url(#background)"/><ellipse cx="804" cy="240" rx="683.9999999999999" ry="520" fill="url(#glow)"/><path d="M0 704L1200 184M0 816L1200 296" stroke="#f6b2f1" stroke-opacity=".08" stroke-width="1.5"/><g fill="#f3d9ff"><circle cx="168.00000000000003" cy="160" r="2.5"/><circle cx="996" cy="136" r="3"/><circle cx="1092" cy="608" r="2"/><circle cx="276" cy="632" r="2"/></g><g fill="none" stroke="url(#line)"><ellipse cx="818" cy="404" rx="320" ry="195" transform="rotate(-32 818 404)" stroke-width="3" opacity=".45"/><ellipse cx="818" cy="404" rx="365" ry="92" transform="rotate(29 818 404)" stroke-width="2" opacity=".35"/><circle cx="818" cy="404" r="140" stroke-width="2" opacity=".22"/></g><circle cx="818" cy="404" r="105" fill="#291944" stroke="#e8beff" stroke-width="2"/><path d="M862 344A76 76 0 1 0 862 463" fill="none" stroke="url(#line)" stroke-width="18" stroke-linecap="round"/><circle cx="1085" cy="274" r="13" fill="#ff8cd1"/><circle cx="524" cy="493" r="8" fill="#dbadff"/><path d="M967 119V158M948 139H986M639 629V653M627 641H651" stroke="#f7ceff" stroke-width="3" stroke-linecap="round"/>
</svg>
