<svg xmlns="http://www.w3.org/2000/svg" width="1200" height="800" viewBox="0 0 1200 800" role="img" aria-label="COSMORA editorial graphic for Romics Fall">
<title>COSMORA editorial graphic for Romics Fall</title><desc>Original abstract COSMORA editorial illustration; not a photograph or an official event logo.</desc>
<defs><linearGradient id="background" x2="1" y2="1"><stop stop-color="#101126"/><stop offset=".55" stop-color="#281344"/><stop offset="1" stop-color="#4e174b"/></linearGradient><radialGradient id="glow"><stop stop-color="#9158ea" stop-opacity=".7"/><stop offset="1" stop-color="#9158ea" stop-opacity="0"/></radialGradient><linearGradient id="line"><stop stop-color="#dba5ff"/><stop offset="1" stop-color="#ff73bd"/></linearGradient><filter id="shadow" x="-50%" y="-50%" width="200%" height="200%"><feDropShadow dx="0" dy="10" stdDeviation="12" flood-color="#04010c" flood-opacity=".6"/></filter></defs><rect width="100%" height="100%" fill="url(#background)"/><ellipse cx="804" cy="240" rx="683.9999999999999" ry="520" fill="url(#glow)"/><path d="M0 704L1200 184M0 816L1200 296" stroke="#f6b2f1" stroke-opacity=".08" stroke-width="1.5"/><g fill="#f3d9ff"><circle cx="168.00000000000003" cy="160" r="2.5"/><circle cx="996" cy="136" r="3"/><circle cx="1092" cy="608" r="2"/><circle cx="276" cy="632" r="2"/></g><circle cx="722" cy="352" r="260" fill="#221435" fill-opacity=".65" stroke="#efceff" stroke-opacity=".17"/><circle cx="722" cy="352" r="218" fill="none" stroke="#f1bcff" stroke-opacity=".1" stroke-dasharray="4 19" stroke-width="2"/><g transform="translate(521 135) scale(2.01)" fill="none" stroke="#f7eaff" stroke-width="5.5" stroke-linecap="round" stroke-linejoin="round" filter="url(#shadow)"><path d="M100 58Q64 34 29 48V143Q62 129 100 151Q138 129 171 143V48Q136 34 100 58Z"/><path d="M100 59V151M45 69Q66 64 85 76M45 89Q66 85 85 96M45 109Q66 106 85 116M115 76Q134 64 155 69M115 96Q134 85 155 89M115 116Q134 106 155 109"/></g><path d="M340 149L411 185L340 221M1060 566H1112M1086 540V592" fill="none" stroke="#efb4ff" stroke-width="5" stroke-linecap="round" stroke-linejoin="round"/><circle cx="324" cy="598" r="13" fill="#f883ca"/><circle cx="1085" cy="205" r="7" fill="#dab6ff"/>
</svg>
